<?xml version="1.0" encoding="utf-8"?>
<!-- Generator: Adobe Illustrator 16.0.0, SVG Export Plug-In . SVG Version: 6.00 Build 0)  -->
<!DOCTYPE svg PUBLIC "-//W3C//DTD SVG 1.1//EN" "http://www.w3.org/Graphics/SVG/1.1/DTD/svg11.dtd">
<svg version="1.1" id="Layer_1" xmlns="http://www.w3.org/2000/svg" xmlns:xlink="http://www.w3.org/1999/xlink" x="0px" y="0px"
	 width="231.363px" height="194.148px" viewBox="3.637 13.436 231.363 194.148"
	 enable-background="new 3.637 13.436 231.363 194.148" xml:space="preserve">
<path d="M234.734,63.062c-0.098-3.209-1.426-4.131-4.393-4.239c-12.6-0.458-25.193-1.075-37.787-1.636
	c-6.934-0.309-28.764-1.247-29.264-1.262c-21.77-0.668-43.533-1.457-65.307-1.92c-4.139-0.088-5.846-1.571-7.124-5.403
	c-5.237-15.689-1.854-8.252-7.317-23.866c-1.053-3.009-2.414-5.833-6.054-6.054c-7.622-0.462-15.263-1.071-22.882-0.918
	c-3.812,0.077-7.443,1.343-9.317-3.39c-0.18-0.455-0.981-0.984-1.602-0.935c-12.185,0.966-23.702,0.273-34.262,1.127
	c-4.268,0.345-5.759,2.101-5.785,6.521c-0.021,3.579,0,5.567,1.003,9.515c2.188,8.605,1.869,10.182,10.755,9.921
	c7.351-0.216,12.3,0.849,26.716,0.234c1.907-0.082,4.651-0.228,5.259-1.628c1.785-4.11,4.962-3.023,7.939-3.036
	c2.42-0.011,4.842,0.198,7.258,0.116c2.213-0.075,3.361,0.701,4.112,2.926c1.993,5.903,28.192,78.138,43.541,119.938
	c0.861,2.352,1.693,4.713,2.501,6.967c-10.062,9.199-14.065,23.162-6.732,32.004c7.216,8.701,17.689,11.188,26.668,8.527
	c6.078-1.801,10.582-5.605,12.45-11.734c2.986-9.777-0.204-18.133-7.426-25.664c18.912-0.379,36.978-0.739,55.039-1.092
	c0.459-0.01,0.92,0.104,1.842,0.219c-0.565,0.671-0.856,1.027-1.161,1.371c-8.957,10.093-7.58,24.021,3.178,32.127
	c7.332,5.525,16.797,5.957,24.354,1.113c6.364-4.08,9.321-11.968,7.437-20.148c-1.549-6.725-5.651-11.787-11.485-15.053
	c-3.563-1.994-4.229-4.344-3.841-7.984c0.892-8.325-1.76-11.133-10.262-11.148c-13.627-0.029-27.252,0.008-40.879,0.053
	c-9.935,0.031-19.873,0.283-29.8,0.062c-2.233-0.049-5.59-1.062-6.399-2.657c-1.521-3.008-1.567-6.763-2.26-10.369
	c16.213,0.674,31.814,1.465,47.426,1.933c16.791,0.503,33.592,0.802,50.392,0.993c7.832,0.092,10.364-2.254,11.207-9.903
	C234.876,106.871,235.398,84.99,234.734,63.062z M40.154,36.359c-11.505-0.042-17.902-1.15-26.288-0.642
	c-3.071,0.186-3.811-1.185-4.347-4.233c-0.636-3.619-1.27-4.794-1.352-7.416c-0.031-0.001,0.042-0.967,0.011-0.969
	c-0.804-4.194,2.226-3.527,3.116-3.579c14.501-0.851,14.501-0.851,29.711-1.115c1.09-0.021,1.732,1.015,1.92,2.104
	c0.664,3.872,0.902,7.814,1.379,11.72C44.696,35.426,43.206,36.37,40.154,36.359z M171.32,61.195
	c11.699,0.497,22.949,0.976,34.605,1.472c-0.91,6.014-1.758,11.626-2.547,16.854c-7.773,0-15.248,0.084-22.721-0.021
	c-9.229-0.131-9.232-0.199-9.334-9.272C171.294,67.437,171.32,64.646,171.32,61.195z M202.895,82.674
	c-1.151,8.438-2.209,16.166-3.258,23.837h-26.628c-0.463-8.378-0.896-16.188-1.317-23.837H202.895z M170.156,105.413
	c-8.746,0-17.225,0.041-25.701-0.076c-0.723-0.009-1.855-0.947-2.08-1.676c-2.186-7.146-4.217-14.337-6.354-21.729h32.742
	C169.251,90.173,169.714,97.98,170.156,105.413z M139.365,104.335c-8.961,0-17.814,0.03-26.667-0.062
	c-0.67-0.007-1.693-0.749-1.939-1.387c-2.656-6.852-5.191-13.752-8.066-21.464c10.153,0,19.438-0.036,28.717,0.07
	c0.729,0.008,1.9,0.876,2.1,1.565C135.583,90.247,137.501,97.482,139.365,104.335z M168.369,61.102v17.605h-33.062
	c-1.375-6.309-2.693-12.346-4.125-18.917C143.771,60.234,155.878,60.661,168.369,61.102z M128.376,59.369
	c1.338,6.625,2.56,12.671,3.896,19.289c-4.996,0-9.765-0.003-14.533,0.001c-2.416,0.002-4.834,0.023-7.251,0.026
	c-8.851,0.011-8.859,0.013-11.797-8.53c-1.233-3.585-2.417-7.188-3.624-10.785L128.376,59.369L128.376,59.369z M141.242,188.193
	c-0.266,10.091-8.135,15.157-18.302,14.712c-7.605-0.332-17.121-7.535-16.273-17.91c0.496-6.101,5.402-15.836,15.784-15.689
	C133.119,169.452,141.514,177.887,141.242,188.193z M224.048,187.758c0.068,7.834-6.123,13.447-14.844,13.453
	c-9.021,0.006-16.789-7.961-16.824-17.256c-0.028-7.937,6.572-14.846,14.285-14.947
	C214.839,168.899,223.968,178.747,224.048,187.758z M130.169,153.62c7.379,0.174,14.767-0.018,22.149-0.023
	c16.041-0.018,32.084,0.006,48.125-0.03c8.32-0.021,8.783,0.498,7.164,9.354c-2.762,0-5.647-0.047-8.532,0.006
	c-25.587,0.474-51.175,0.857-76.752,1.557c-3.961,0.105-5.453-1.281-6.717-4.753C99.814,116.375,90.879,90.07,74.97,46.757
	c-2.237-6.088-2.604-6.129-4.777-12.24c-0.809-2.27-2.135-3.174-4.541-3.122c-5.447,0.121-10.898,0.038-16.464,0.038
	c-1.283-8.035-0.903-8.829,6.249-9.013c6.215-0.161,12.454,0.393,18.674,0.774c2.861,0.175,4.357,1.97,5.3,4.691
	c5.706,16.467,2.383,9.947,8.386,26.307c9.416,25.667,19.138,51.221,28.592,76.875c1.688,4.58,2.928,9.357,3.969,14.137
	C121.703,151.374,123.69,153.467,130.169,153.62z M123.585,130.659c-0.905-0.014-2.278-0.869-2.614-1.678
	c-2.922-7.01-5.656-14.1-8.584-21.512c3.641,0,6.752-0.048,9.86,0.012c4.965,0.097,9.928,0.392,14.889,0.351
	c2.531-0.021,3.838,0.717,4.65,3.29c2.137,6.769,4.627,13.422,6.801,19.613C140.053,130.735,131.818,130.79,123.585,130.659z
	 M196.523,133.102c-5.508,0-10.818,0.115-16.121-0.025c-8.633-0.229-17.268-0.563-25.891-1.041c-1.08-0.062-2.695-1.021-3.049-1.951
	c-2.67-6.987-5.086-14.073-7.615-21.229h26.482c0.857,7.243,1.525,13.932,2.508,20.575c0.662,4.476,2.662,2.351,2.469-0.468
	c-0.443-6.438-1.273-12.844-1.916-19.097h25.816C198.271,117.963,197.416,125.375,196.523,133.102z M226.98,130.208
	c-0.236,1.357-2.748,3.229-4.281,3.299c-7.584,0.342-15.189,0.154-23.361,0.154c0.932-8.146,1.783-15.637,2.623-23.009h27.287
	C228.516,117.529,228.07,123.924,226.98,130.208z M229.572,107.6h-27.197c1.129-8.349,2.18-16.095,3.293-24.343
	c8.123,0.418,16.062,0.826,23.904,1.23V107.6L229.572,107.6z M229.82,81.717c-7.965-0.43-15.553-0.84-23.684-1.279
	c0.879-5.937,1.709-11.534,2.492-16.823c6.678,0,13.098-0.043,19.516,0.075c0.568,0.01,1.588,1.059,1.602,1.644
	C229.871,70.736,229.82,76.143,229.82,81.717z"/>
<path d="M130.542,186.813c0.072,3.87-3.239,7.188-7.305,7.311c-4.238,0.129-7.801-3.367-7.902-7.76
	c-0.107-4.656,3.428-8.259,8.285-8.445C126.639,177.801,130.468,182.722,130.542,186.813z M117.772,186.2
	c-0.008,4.338,3.562,4.239,5.427,4.422c1.196,0.119,4.002-2.894,3.737-3.84c-0.576-2.041-2.375-4.277-4.269-5.168
	C121.83,181.219,117.782,181.861,117.772,186.2z"/>
<path d="M208.464,191.062c-3.428-0.065-6.493-3.384-6.305-6.823c0.159-2.919,2.435-5.354,4.957-5.312
	c3.353,0.06,7.469,3.644,7.442,6.48C214.531,188.374,211.57,191.122,208.464,191.062z M206.451,181.724
	c-1.576,1.056-1.613,4.854,0.682,5.955c0.994,0.479,3.973-0.644,4.188-1.503C212.296,182.264,208.027,180.668,206.451,181.724z"/>
</svg>
